#N canvas 76 304 878 584 12;
#X obj 86 453 dac~;
#X obj 215 8 r bno-yaw;
#X obj 372 10 r bno-pitch;
#X obj 98 339 r bypass;
#X obj 360 352 print;
#X obj 182 385 change;
#X obj 192 425 print;
#X obj 87 383 *~ 1;
#X obj 133 384 *~ 1;
#X obj 54 383 - 1;
#X obj 12 412 *~ -1;
#X obj 12 36 adc~;
#X obj 389 431 <;
#X obj 422 410 0;
#X obj 372 499 + 360;
#X obj 447 475 spigot;
#X obj 458 431 >=;
#X obj 360 312 change;
#X obj 215 39 * 180;
#X obj 215 64 / 3.1415;
#X obj 373 44 * 180;
#X obj 373 71 / 3.1415;
#X obj 374 471 spigot;
#X obj 361 274 int;
#X obj 508 369 openpanel;
#X obj 507 334 bng 15 250 50 0 empty empty empty 17 7 0 10 -262144
-1 -1;
#X obj 106 179 receive sofa;
#X obj 631 510 send sofa;
#X obj 658 333 select 0 1 2 3;
#X msg 710 448 subject_003.sofa;
#X msg 616 370 hrtf_c_nh906.sofa;
#X msg 644 396 mit_kemar_normal_pinna.sofa;
#X msg 678 423 mit_kemar_large_pinna.sofa;
#X obj 668 280 f;
#X obj 712 281 + 1;
#X obj 575 14 tgl 15 0 empty empty empty 17 7 0 10 -262144 -1 -1 0
1;
#X obj 668 305 % 4;
#X obj 631 484 symbol;
#X obj 634 13 r sofas;
#X obj 789 77 loadbang;
#X obj 797 106 f \$1;
#X obj 665 179 sel 1;
#X obj 637 70 tgl 15 0 empty empty empty 17 7 0 10 -262144 -1 -1 0
1;
#X obj 657 91 bng 15 250 50 0 empty empty empty 17 7 0 10 -262144 -1
-1;
#X obj 667 253 bng 15 250 50 0 empty empty empty 17 7 0 10 -262144
-1 -1;
#X obj 661 124 timer;
#X obj 704 85 delay;
#X floatatom 793 143 5 0 0 0 - - -, f 5;
#X obj 665 152 ==;
#X obj 633 42 change;
#X obj 558 260 change;
#X obj 813 10 1000;
#X obj 665 208 bng 15 250 50 0 empty empty empty 17 7 0 10 -262144
-1 -1;
#X obj 618 228 spigot;
#X obj 215 92 % 360;
#X obj 168 80 * 0;
#X obj 317 51 * 0;
#X obj 317 76 + 40;
#X obj 167 104 + 270;
#X obj 220 155 -30;
#X obj 192 245 + 30;
#X obj 192 270 % 360;
#X obj 220 180 % 360;
#X obj 103 307 SOFAlizer~ hrtf_c_nh906.sofa;
#X obj 104 218 SOFAlizer~ hrtf_c_nh906.sofa;
#X connect 1 0 18 0;
#X connect 2 0 20 0;
#X connect 3 0 7 1;
#X connect 3 0 8 1;
#X connect 3 0 9 0;
#X connect 3 0 5 0;
#X connect 5 0 6 0;
#X connect 7 0 0 0;
#X connect 8 0 0 1;
#X connect 9 0 10 1;
#X connect 10 0 0 0;
#X connect 10 0 0 1;
#X connect 11 0 63 0;
#X connect 11 0 64 0;
#X connect 11 0 10 0;
#X connect 12 0 22 1;
#X connect 13 0 12 1;
#X connect 13 0 16 1;
#X connect 16 0 15 1;
#X connect 17 0 4 0;
#X connect 18 0 19 0;
#X connect 19 0 54 0;
#X connect 20 0 21 0;
#X connect 21 0 63 3;
#X connect 21 0 64 3;
#X connect 22 0 14 0;
#X connect 23 0 17 0;
#X connect 24 0 37 0;
#X connect 25 0 24 0;
#X connect 26 0 63 1;
#X connect 26 0 64 1;
#X connect 28 0 30 0;
#X connect 28 1 31 0;
#X connect 28 2 32 0;
#X connect 28 3 29 0;
#X connect 29 0 37 0;
#X connect 30 0 37 0;
#X connect 31 0 37 0;
#X connect 32 0 37 0;
#X connect 33 0 34 0;
#X connect 33 0 36 0;
#X connect 34 0 33 1;
#X connect 35 0 50 0;
#X connect 36 0 28 0;
#X connect 37 0 27 0;
#X connect 38 0 49 0;
#X connect 39 0 40 0;
#X connect 40 0 46 1;
#X connect 40 0 47 0;
#X connect 41 0 52 0;
#X connect 42 0 43 0;
#X connect 42 0 53 1;
#X connect 43 0 45 1;
#X connect 43 0 45 0;
#X connect 43 0 46 0;
#X connect 44 0 33 0;
#X connect 45 0 48 0;
#X connect 46 0 45 1;
#X connect 48 0 41 0;
#X connect 49 0 42 0;
#X connect 50 0 44 0;
#X connect 51 0 46 1;
#X connect 51 0 48 1;
#X connect 52 0 53 0;
#X connect 53 0 44 0;
#X connect 54 0 59 0;
#X connect 54 0 60 0;
#X connect 55 0 58 0;
#X connect 56 0 57 0;
#X connect 59 0 62 0;
#X connect 60 0 61 0;
#X connect 61 0 63 2;
#X connect 62 0 64 2;
#X connect 63 0 7 0;
#X connect 63 1 8 0;
#X connect 64 0 7 0;
#X connect 64 1 8 0;
