#N canvas 67 304 878 584 12;
#X obj 159 479 dac~;
#X obj 215 8 r bno-yaw;
#X obj 372 10 r bno-pitch;
#X obj 162 345 r bypass;
#X obj 255 411 change;
#X obj 255 439 print;
#X obj 160 409 *~ 1;
#X obj 206 410 *~ 1;
#X obj 104 411 - 1;
#X obj 72 437 *~ -1;
#X obj 34 18 adc~;
#X obj 215 39 * 180;
#X obj 215 64 / 3.1415;
#X obj 373 44 * 180;
#X obj 373 71 / 3.1415;
#X obj 789 60 openpanel;
#X obj 789 38 bng 15 250 50 0 empty empty empty 17 7 0 10 -262144 -1
-1;
#X obj 106 179 receive sofa;
#X obj 631 520 send sofa;
#X obj 631 351 select 0 1 2 3;
#X msg 725 461 subject_003.sofa;
#X msg 631 383 hrtf_c_nh906.sofa;
#X msg 659 409 mit_kemar_normal_pinna.sofa;
#X msg 693 436 mit_kemar_large_pinna.sofa;
#X obj 631 297 f;
#X obj 673 298 + 1;
#X obj 732 34 tgl 15 0 empty empty empty 17 7 0 10 -262144 -1 -1 0
1;
#X obj 631 323 % 4;
#X obj 631 494 symbol;
#X obj 631 32 r sofas;
#X obj 707 62 loadbang;
#X obj 707 88 f \$1;
#X obj 631 194 sel 1;
#X obj 631 89 tgl 15 0 empty empty empty 17 7 0 10 -262144 -1 -1 0
1;
#X obj 631 112 bng 15 250 50 0 empty empty empty 17 7 0 10 -262144
-1 -1;
#X obj 631 275 bng 15 250 50 0 empty empty empty 17 7 0 10 -262144
-1 -1;
#X obj 631 140 timer;
#X obj 710 118 delay;
#X obj 631 167 ==;
#X obj 631 60 change;
#X obj 742 88 1000;
#X obj 631 221 bng 15 250 50 0 empty empty empty 17 7 0 10 -262144
-1 -1;
#X obj 631 246 spigot;
#X obj 215 92 % 360;
#X obj 220 155 -30;
#X obj 192 245 + 30;
#X obj 192 270 % 360;
#X obj 220 180 % 360;
#X obj 103 307 SOFAlizer~ hrtf_c_nh906.sofa;
#X obj 104 218 SOFAlizer~ hrtf_c_nh906.sofa;
#X connect 1 0 11 0;
#X connect 2 0 13 0;
#X connect 3 0 6 1;
#X connect 3 0 7 1;
#X connect 3 0 8 0;
#X connect 3 0 4 0;
#X connect 4 0 5 0;
#X connect 6 0 0 0;
#X connect 7 0 0 1;
#X connect 8 0 9 1;
#X connect 9 0 0 0;
#X connect 9 0 0 1;
#X connect 10 0 49 0;
#X connect 10 0 9 0;
#X connect 10 1 48 0;
#X connect 10 1 9 0;
#X connect 11 0 12 0;
#X connect 12 0 43 0;
#X connect 13 0 14 0;
#X connect 14 0 48 3;
#X connect 14 0 49 3;
#X connect 15 0 28 0;
#X connect 16 0 15 0;
#X connect 17 0 48 1;
#X connect 17 0 49 1;
#X connect 19 0 21 0;
#X connect 19 1 22 0;
#X connect 19 2 23 0;
#X connect 19 3 20 0;
#X connect 20 0 28 0;
#X connect 21 0 28 0;
#X connect 22 0 28 0;
#X connect 23 0 28 0;
#X connect 24 0 25 0;
#X connect 24 0 27 0;
#X connect 25 0 24 1;
#X connect 26 0 39 0;
#X connect 27 0 19 0;
#X connect 28 0 18 0;
#X connect 29 0 39 0;
#X connect 30 0 31 0;
#X connect 31 0 37 1;
#X connect 32 0 41 0;
#X connect 33 0 34 0;
#X connect 33 0 42 1;
#X connect 34 0 36 1;
#X connect 34 0 36 0;
#X connect 34 0 37 0;
#X connect 35 0 24 0;
#X connect 36 0 38 0;
#X connect 37 0 36 1;
#X connect 38 0 32 0;
#X connect 39 0 33 0;
#X connect 40 0 37 1;
#X connect 40 0 38 1;
#X connect 41 0 42 0;
#X connect 42 0 35 0;
#X connect 43 0 44 0;
#X connect 43 0 45 0;
#X connect 44 0 47 0;
#X connect 45 0 46 0;
#X connect 46 0 48 2;
#X connect 47 0 49 2;
#X connect 48 0 6 0;
#X connect 48 1 7 0;
#X connect 49 0 6 0;
#X connect 49 1 7 0;
