#N canvas 193 171 915 637 12;
#X obj 101 376 dac~;
#X obj 197 36 r bno-yaw;
#X obj 349 38 r bno-pitch;
#X obj 349 64 clip -1.57 1.57;
#X obj 349 87 + 1.57;
#X obj 349 110 * 0.5;
#X obj 33 41 loadbang;
#X obj 19 133 readsf~ 1;
#X msg 20 72 open ./Lament.wav;
#X msg 98 101 1;
#X msg 30 101 0;
#X obj 84 164 delay 100;
#X obj 349 134 * 114.5;
#X obj 349 158 * -1;
#X obj 349 182 + 90;
#X obj 113 262 r bypass;
#X obj 301 314 print;
#X obj 197 308 change;
#X obj 207 348 print;
#X obj 197 61 * 57.32;
#X obj 102 306 *~ 1;
#X obj 148 307 *~ 1;
#X obj 69 306 - 1;
#X obj 37 337 *~ -1;
#X obj 301 288 change;
#X obj 123 40 adc~;
#X obj 105 224 SOFAlizer~;
#X obj 198 110 <;
#X obj 275 50 0;
#X obj 181 178 + 360;
#X obj 182 150 spigot;
#X obj 256 154 spigot;
#X obj 267 110 >=;
#X connect 1 0 19 0;
#X connect 2 0 3 0;
#X connect 3 0 4 0;
#X connect 4 0 5 0;
#X connect 5 0 12 0;
#X connect 6 0 8 0;
#X connect 6 0 9 0;
#X connect 7 0 23 0;
#X connect 7 0 26 0;
#X connect 7 1 8 0;
#X connect 7 1 11 0;
#X connect 8 0 7 0;
#X connect 9 0 7 0;
#X connect 10 0 7 0;
#X connect 11 0 9 0;
#X connect 12 0 13 0;
#X connect 13 0 14 0;
#X connect 14 0 26 2;
#X connect 15 0 20 1;
#X connect 15 0 21 1;
#X connect 15 0 22 0;
#X connect 15 0 17 0;
#X connect 17 0 18 0;
#X connect 19 0 27 0;
#X connect 19 0 30 0;
#X connect 19 0 32 0;
#X connect 19 0 31 0;
#X connect 20 0 0 0;
#X connect 21 0 0 1;
#X connect 22 0 23 1;
#X connect 23 0 0 0;
#X connect 23 0 0 1;
#X connect 24 0 16 0;
#X connect 26 0 20 0;
#X connect 26 1 21 0;
#X connect 27 0 30 1;
#X connect 28 0 27 1;
#X connect 28 0 32 1;
#X connect 29 0 26 1;
#X connect 29 0 24 0;
#X connect 30 0 29 0;
#X connect 31 0 26 1;
#X connect 31 0 24 0;
#X connect 32 0 31 1;
