#N canvas 665 161 918 720 12;
#X obj 131 420 dac~;
#X obj 280 57 r bno-yaw;
#X obj 429 60 r bno-pitch;
#X obj 136 270 r bypass;
#X obj 430 335 change;
#X obj 12 311 *~ 1;
#X obj 246 324 - 1;
#X obj 214 356 *~ -1;
#X obj 14 55 adc~;
#X obj 280 88 * 180;
#X obj 280 113 / 3.1415;
#X obj 429 90 * 180;
#X obj 429 116 / 3.1415;
#X obj 735 165 openpanel;
#X obj 735 64 bng 15 250 50 0 empty empty empty 17 7 0 10 #fcfcfc #000000
#000000;
#X obj 565 264 select 0 1 2 3;
#X msg 565 325 subject_003.sofa;
#X msg 636 406 hrtf_c_nh906.sofa;
#X msg 588 351 mit_kemar_normal_pinna.sofa;
#X msg 613 376 mit_kemar_large_pinna.sofa;
#X obj 565 210 f;
#X obj 607 211 + 1;
#X obj 660 60 tgl 15 0 empty empty empty 17 7 0 10 #fcfcfc #000000
#000000 0 1;
#X obj 565 236 % 4;
#X obj 565 407 symbol;
#X obj 565 57 r sofas;
#X obj 565 114 tgl 15 0 empty empty empty 17 7 0 10 #fcfcfc #000000
#000000 0 1;
#X obj 565 137 bng 15 250 50 0 empty empty empty 17 7 0 10 #fcfcfc
#000000 #000000;
#X obj 566 86 change;
#X obj 280 141 % 360;
#X obj 175 181 -30;
#X obj 414 183 + 30;
#X obj 414 208 % 360;
#X obj 175 207 % 360;
#X obj 565 159 delay 1000;
#X obj 565 186 bng 15 250 50 0 empty empty empty 17 7 0 10 #fcfcfc
#000000 #000000;
#X obj 53 235 SOFAlizer~ hrtf_c_nh906.sofa 128;
#X obj 296 235 SOFAlizer~ hrtf_c_nh906.sofa 128;
#X text 116 24 switch SOFA files;
#X text 277 22 azimuth angle;
#X text 421 24 elevation angle;
#X obj 126 58 r sofa;
#X text 112 269 on;
#X text 211 270 off;
#X text 562 26 button;
#X text 618 26 toggle switch;
#X text 722 27 search file;
#X text 584 135 debounce button;
#X text 11 22 audio input;
#X text 562 7 Switch SOFA file through:;
#X text 180 424 audio output;
#X obj 565 433 s sofa;
#X text 679 263 skip through SOFA files;
#X text 335 148 calculate rad to deg;
#X text 630 433 send filename to inlet;
#X obj 430 361 print bypass;
#X obj 626 86 !=;
#X obj 565 295 bng 15 250 50 0 empty empty empty 17 7 0 10 #fcfcfc
#000000 #000000;
#X obj 588 296 bng 15 250 50 0 empty empty empty 17 7 0 10 #fcfcfc
#000000 #000000;
#X obj 613 297 bng 15 250 50 0 empty empty empty 17 7 0 10 #fcfcfc
#000000 #000000;
#X obj 636 298 bng 15 250 50 0 empty empty empty 17 7 0 10 #fcfcfc
#000000 #000000;
#X obj 312 327 - 1;
#X obj 310 357 *~ -1;
#X text 151 355 ch:left;
#X text 360 358 ch:right;
#X obj 679 294 print HRTFs loaded from;
#X obj 12 339 *~ 0.5;
#X connect 1 0 9 0;
#X connect 2 0 11 0;
#X connect 3 0 5 1;
#X connect 3 0 6 0;
#X connect 3 0 4 0;
#X connect 3 0 61 0;
#X connect 4 0 55 0;
#X connect 5 0 66 0;
#X connect 6 0 7 1;
#X connect 7 0 0 0;
#X connect 8 0 5 0;
#X connect 8 0 36 0;
#X connect 8 1 37 0;
#X connect 8 1 5 0;
#X connect 9 0 10 0;
#X connect 10 0 29 0;
#X connect 11 0 12 0;
#X connect 12 0 36 3;
#X connect 12 0 37 3;
#X connect 13 0 24 0;
#X connect 14 0 13 0;
#X connect 15 0 57 0;
#X connect 15 1 58 0;
#X connect 15 2 59 0;
#X connect 15 3 60 0;
#X connect 16 0 24 0;
#X connect 16 0 65 0;
#X connect 17 0 24 0;
#X connect 17 0 65 0;
#X connect 18 0 24 0;
#X connect 18 0 65 0;
#X connect 19 0 24 0;
#X connect 19 0 65 0;
#X connect 20 0 21 0;
#X connect 20 0 23 0;
#X connect 21 0 20 1;
#X connect 22 0 28 0;
#X connect 23 0 15 0;
#X connect 24 0 51 0;
#X connect 25 0 28 0;
#X connect 26 0 27 0;
#X connect 27 0 34 0;
#X connect 28 0 26 0;
#X connect 28 0 56 0;
#X connect 29 0 30 0;
#X connect 29 0 31 0;
#X connect 30 0 33 0;
#X connect 31 0 32 0;
#X connect 32 0 37 2;
#X connect 33 0 36 2;
#X connect 34 0 35 0;
#X connect 35 0 20 0;
#X connect 36 0 7 0;
#X connect 36 1 62 0;
#X connect 37 0 7 0;
#X connect 37 1 62 0;
#X connect 41 0 36 1;
#X connect 41 0 37 1;
#X connect 56 0 28 0;
#X connect 57 0 16 0;
#X connect 58 0 18 0;
#X connect 59 0 19 0;
#X connect 60 0 17 0;
#X connect 61 0 62 1;
#X connect 62 0 0 1;
#X connect 66 0 0 0;
#X connect 66 0 0 1;
