#N canvas 128 241 1386 720 12;
#X obj 131 420 dac~;
#X obj 260 56 r bno-yaw;
#X obj 404 57 r bno-pitch;
#X obj 136 270 r bypass;
#X obj 430 335 change;
#X obj 12 311 *~ 1;
#X obj 246 324 - 1;
#X obj 214 356 *~ -1;
#X obj 14 55 adc~;
#X obj 301 100 * 180;
#X obj 301 125 / 3.1415;
#X obj 447 104 * 180;
#X obj 447 130 / 3.1415;
#X obj 749 164 openpanel;
#X obj 749 63 bng 15 250 50 0 empty empty empty 17 7 0 10 #fcfcfc #000000
#000000;
#X obj 579 263 select 0 1 2 3;
#X msg 579 324 subject_003.sofa;
#X msg 650 405 hrtf_c_nh906.sofa;
#X msg 602 350 mit_kemar_normal_pinna.sofa;
#X msg 627 375 mit_kemar_large_pinna.sofa;
#X obj 579 209 f;
#X obj 621 210 + 1;
#X obj 674 59 tgl 15 0 empty empty empty 17 7 0 10 #fcfcfc #000000
#000000 0 1;
#X obj 579 235 % 4;
#X obj 579 406 symbol;
#X obj 579 113 tgl 15 0 empty empty empty 17 7 0 10 #fcfcfc #000000
#000000 0 1;
#X obj 579 136 bng 15 250 50 0 empty empty empty 17 7 0 10 #fcfcfc
#000000 #000000;
#X obj 580 85 change;
#X obj 301 153 % 360;
#X obj 175 181 -30;
#X obj 414 183 + 30;
#X obj 414 208 % 360;
#X obj 175 207 % 360;
#X obj 579 158 delay 1000;
#X obj 579 185 bng 15 250 50 0 empty empty empty 17 7 0 10 #fcfcfc
#000000 #000000;
#X obj 53 235 SOFAlizer~ hrtf_c_nh906.sofa 128;
#X obj 296 235 SOFAlizer~ hrtf_c_nh906.sofa 128;
#X text 116 24 switch SOFA files;
#X text 257 21 azimuth angle;
#X text 396 21 elevation angle;
#X obj 126 58 r sofa;
#X text 112 270 on;
#X text 211 271 off;
#X text 576 25 button;
#X text 632 25 toggle switch;
#X text 736 26 search file;
#X text 598 134 debounce button;
#X text 11 22 audio input;
#X text 576 6 Switch SOFA file through:;
#X text 180 425 audio output;
#X obj 579 432 s sofa;
#X text 693 262 skip through SOFA files;
#X text 327 80 calculate rad to deg;
#X text 644 432 send filename to inlet;
#X obj 430 361 print bypass;
#X obj 640 85 !=;
#X obj 579 294 bng 15 250 50 0 empty empty empty 17 7 0 10 #fcfcfc
#000000 #000000;
#X obj 602 295 bng 15 250 50 0 empty empty empty 17 7 0 10 #fcfcfc
#000000 #000000;
#X obj 627 296 bng 15 250 50 0 empty empty empty 17 7 0 10 #fcfcfc
#000000 #000000;
#X obj 650 297 bng 15 250 50 0 empty empty empty 17 7 0 10 #fcfcfc
#000000 #000000;
#X obj 312 327 - 1;
#X obj 310 357 *~ -1;
#X text 151 356 ch:left;
#X text 360 359 ch:right;
#X obj 693 293 print HRTFs loaded from;
#X obj 12 339 *~ 0.5;
#X obj 896 144 readsf~ 1;
#X msg 993 58 1;
#X msg 896 103 open ./Lament.wav;
#X obj 896 58 bng 15 250 50 0 empty empty empty 17 7 0 10 #fcfcfc #000000
#000000;
#X msg 943 57 0;
#X obj 896 169 s~ wav;
#X obj 58 55 r~ wav;
#X text 890 28 Load wav;
#X obj 898 220 tgl 15 0 empty empty empty 17 7 0 10 #fcfcfc #000000
#000000 0 1;
#X obj 898 240 s bypass;
#X text 894 199 Switch Bypass;
#X obj 933 312 hsl 128 15 -180 180 0 0 empty empty azimuth\\\ -180째\\\ -\\\ 180째
-2 -8 0 12 #fcfcfc #000000 #000000 0 1;
#X obj 930 407 hsl 128 15 -60 90 0 0 empty empty elevation\\\ -60째\\\ -\\\ 90째
-2 -8 0 12 #fcfcfc #000000 #000000 0 1;
#X msg 899 361 0;
#X obj 899 279 bng 15 250 50 0 empty empty empty 17 7 0 10 #fcfcfc
#000000 #000000;
#X text 921 275 Calibration;
#X obj 336 56 r azi;
#X obj 930 335 s azi;
#X obj 493 58 r ele;
#X floatatom 998 434 5 0 0 0 - - - 0;
#X floatatom 1002 334 5 0 0 0 - - - 0;
#X obj 977 144 delay 100;
#X obj 927 435 s ele;
#X text 890 9 Manual Control:;
#X obj 579 56 r bno-sofa;
#X connect 1 0 9 0;
#X connect 2 0 11 0;
#X connect 3 0 5 1;
#X connect 3 0 6 0;
#X connect 3 0 4 0;
#X connect 3 0 60 0;
#X connect 4 0 54 0;
#X connect 5 0 65 0;
#X connect 6 0 7 1;
#X connect 7 0 0 0;
#X connect 8 0 5 0;
#X connect 8 0 35 0;
#X connect 8 1 36 0;
#X connect 8 1 5 0;
#X connect 9 0 10 0;
#X connect 10 0 28 0;
#X connect 11 0 12 0;
#X connect 12 0 35 3;
#X connect 12 0 36 3;
#X connect 13 0 24 0;
#X connect 14 0 13 0;
#X connect 15 0 56 0;
#X connect 15 1 57 0;
#X connect 15 2 58 0;
#X connect 15 3 59 0;
#X connect 16 0 24 0;
#X connect 16 0 64 0;
#X connect 17 0 24 0;
#X connect 17 0 64 0;
#X connect 18 0 24 0;
#X connect 18 0 64 0;
#X connect 19 0 24 0;
#X connect 19 0 64 0;
#X connect 20 0 21 0;
#X connect 20 0 23 0;
#X connect 21 0 20 1;
#X connect 22 0 27 0;
#X connect 23 0 15 0;
#X connect 24 0 50 0;
#X connect 25 0 26 0;
#X connect 26 0 33 0;
#X connect 27 0 25 0;
#X connect 27 0 55 0;
#X connect 28 0 29 0;
#X connect 28 0 30 0;
#X connect 29 0 32 0;
#X connect 30 0 31 0;
#X connect 31 0 36 2;
#X connect 32 0 35 2;
#X connect 33 0 34 0;
#X connect 34 0 20 0;
#X connect 35 0 7 0;
#X connect 35 1 61 0;
#X connect 36 0 7 0;
#X connect 36 1 61 0;
#X connect 40 0 35 1;
#X connect 40 0 36 1;
#X connect 55 0 27 0;
#X connect 56 0 16 0;
#X connect 57 0 18 0;
#X connect 58 0 19 0;
#X connect 59 0 17 0;
#X connect 60 0 61 1;
#X connect 61 0 0 1;
#X connect 65 0 0 0;
#X connect 65 0 0 1;
#X connect 66 0 71 0;
#X connect 66 1 87 0;
#X connect 67 0 66 0;
#X connect 68 0 66 0;
#X connect 68 0 67 0;
#X connect 69 0 68 0;
#X connect 70 0 66 0;
#X connect 72 0 5 0;
#X connect 72 0 35 0;
#X connect 72 0 36 0;
#X connect 74 0 75 0;
#X connect 77 0 83 0;
#X connect 77 0 86 0;
#X connect 78 0 85 0;
#X connect 78 0 88 0;
#X connect 79 0 77 0;
#X connect 79 0 78 0;
#X connect 80 0 79 0;
#X connect 82 0 29 0;
#X connect 82 0 30 0;
#X connect 84 0 35 3;
#X connect 84 0 36 3;
#X connect 87 0 69 0;
#X connect 90 0 27 0;
