#N canvas 518 235 496 637 12;
#X obj 101 376 dac~;
#X obj 197 6 r bno-yaw;
#X obj 358 68 r bno-pitch;
#X obj 33 41 loadbang;
#X obj 19 133 readsf~ 1;
#X msg 20 72 open ./Lament.wav;
#X msg 98 101 1;
#X msg 30 101 0;
#X obj 84 164 delay 100;
#X obj 113 262 r bypass;
#X obj 383 407 print;
#X obj 197 308 change;
#X obj 207 348 print;
#X obj 102 306 *~ 1;
#X obj 148 307 *~ 1;
#X obj 69 306 - 1;
#X obj 37 337 *~ -1;
#X obj 301 288 change;
#X obj 23 183 adc~;
#X obj 198 110 <;
#X obj 275 50 0;
#X obj 181 178 + 360;
#X obj 256 154 spigot;
#X obj 267 110 >=;
#X obj 360 220 change;
#X obj 197 37 * 180;
#X obj 197 62 / 3.1415;
#X obj 359 102 * 180;
#X obj 359 129 / 3.1415;
#X obj 294 381 print;
#X obj 183 150 spigot;
#X obj 359 184 int;
#X obj 105 224 SOFAlizer~ subject_003.sofa;
#X connect 1 0 25 0;
#X connect 2 0 27 0;
#X connect 3 0 5 0;
#X connect 3 0 6 0;
#X connect 4 1 5 0;
#X connect 4 1 8 0;
#X connect 5 0 4 0;
#X connect 6 0 4 0;
#X connect 7 0 4 0;
#X connect 8 0 6 0;
#X connect 9 0 13 1;
#X connect 9 0 14 1;
#X connect 9 0 15 0;
#X connect 9 0 11 0;
#X connect 11 0 12 0;
#X connect 13 0 0 0;
#X connect 14 0 0 1;
#X connect 15 0 16 1;
#X connect 16 0 0 0;
#X connect 16 0 0 1;
#X connect 18 0 16 0;
#X connect 18 0 32 0;
#X connect 18 1 32 1;
#X connect 19 0 30 1;
#X connect 20 0 19 1;
#X connect 20 0 23 1;
#X connect 21 0 17 0;
#X connect 21 0 32 2;
#X connect 22 0 17 0;
#X connect 22 0 32 2;
#X connect 23 0 22 1;
#X connect 24 0 10 0;
#X connect 25 0 26 0;
#X connect 26 0 23 0;
#X connect 26 0 22 0;
#X connect 26 0 19 0;
#X connect 26 0 30 0;
#X connect 27 0 28 0;
#X connect 28 0 31 0;
#X connect 28 0 32 3;
#X connect 30 0 21 0;
#X connect 31 0 24 0;
#X connect 32 0 13 0;
#X connect 32 1 14 0;
