#N canvas 289 260 878 468 12;
#X obj 101 376 dac~;
#X obj 215 8 r bno-yaw;
#X obj 372 10 r bno-pitch;
#X obj 20 13 loadbang;
#X obj 6 105 readsf~ 1;
#X msg 7 44 open ./Lament.wav;
#X msg 85 73 1;
#X msg 17 73 0;
#X obj 60 138 delay 100;
#X obj 113 262 r bypass;
#X obj 360 352 print;
#X obj 197 308 change;
#X obj 207 348 print;
#X obj 102 306 *~ 1;
#X obj 148 307 *~ 1;
#X obj 69 306 - 1;
#X obj 37 337 *~ -1;
#X obj 650 55 change;
#X obj 39 182 adc~;
#X obj 224 112 <;
#X obj 257 91 0;
#X obj 207 180 + 360;
#X obj 282 156 spigot;
#X obj 293 112 >=;
#X obj 360 312 change;
#X obj 215 39 * 180;
#X obj 215 64 / 3.1415;
#X obj 373 44 * 180;
#X obj 373 71 / 3.1415;
#X obj 272 352 print;
#X obj 209 152 spigot;
#X obj 361 274 int;
#X obj 490 192 openpanel;
#X obj 489 157 bng 15 250 50 0 empty empty empty 17 7 0 10 -262144
-1 -1;
#X obj 106 226 SOFAlizer~ subject_003.sofa;
#X obj 106 179 receive sofa;
#X obj 613 333 send sofa;
#X obj 640 156 select 0 1 2 3;
#X msg 690 271 subject_003.sofa;
#X msg 587 193 hrtf_c_nh906.sofa;
#X msg 626 219 mit_kemar_normal_pinna.sofa;
#X msg 660 246 mit_kemar_large_pinna.sofa;
#X obj 650 103 f;
#X obj 694 104 + 1;
#X obj 612 28 tgl 15 0 empty empty empty 17 7 0 10 -262144 -1 -1 0
1;
#X obj 650 128 % 4;
#X obj 613 307 symbol;
#X obj 650 82 bng 15 250 50 0 empty empty empty 17 7 0 10 -262144 -1
-1;
#X obj 635 27 r sofas;
#X obj 271 308 change;
#X connect 1 0 25 0;
#X connect 2 0 27 0;
#X connect 3 0 5 0;
#X connect 3 0 6 0;
#X connect 4 1 5 0;
#X connect 4 1 8 0;
#X connect 5 0 4 0;
#X connect 6 0 4 0;
#X connect 7 0 4 0;
#X connect 8 0 6 0;
#X connect 9 0 13 1;
#X connect 9 0 14 1;
#X connect 9 0 15 0;
#X connect 9 0 11 0;
#X connect 11 0 12 0;
#X connect 13 0 0 0;
#X connect 14 0 0 1;
#X connect 15 0 16 1;
#X connect 16 0 0 0;
#X connect 16 0 0 1;
#X connect 17 0 47 0;
#X connect 18 0 34 0;
#X connect 18 0 16 0;
#X connect 19 0 30 1;
#X connect 20 0 19 1;
#X connect 20 0 23 1;
#X connect 21 0 34 2;
#X connect 22 0 34 2;
#X connect 23 0 22 1;
#X connect 24 0 10 0;
#X connect 25 0 26 0;
#X connect 26 0 19 0;
#X connect 26 0 23 0;
#X connect 26 0 30 0;
#X connect 26 0 22 0;
#X connect 27 0 28 0;
#X connect 28 0 31 0;
#X connect 28 0 34 3;
#X connect 30 0 21 0;
#X connect 31 0 24 0;
#X connect 32 0 46 0;
#X connect 33 0 32 0;
#X connect 34 0 13 0;
#X connect 34 1 14 0;
#X connect 35 0 34 1;
#X connect 37 0 39 0;
#X connect 37 1 40 0;
#X connect 37 2 41 0;
#X connect 37 3 38 0;
#X connect 38 0 46 0;
#X connect 39 0 46 0;
#X connect 40 0 46 0;
#X connect 41 0 46 0;
#X connect 42 0 43 0;
#X connect 42 0 45 0;
#X connect 43 0 42 1;
#X connect 44 0 17 0;
#X connect 45 0 37 0;
#X connect 46 0 36 0;
#X connect 47 0 42 0;
#X connect 48 0 17 0;
